<svg width="152" height="40" viewBox="0 0 152 40" fill="none" xmlns="http://www.w3.org/2000/svg">
<path d="M65.2127 26.9573L63.5848 31.9524C63.5182 32.1212 63.415 32.2238 63.212 32.2238H59.2737C59.0373 32.2238 58.9674 32.0881 59.0007 31.8862L65.7886 12.4123C65.9251 12.0416 66.0616 11.6377 66.1282 10.3534C66.1282 10.2177 66.2314 10.1183 66.3313 10.1183H71.761C71.9307 10.1183 71.9973 10.1514 72.0339 10.3203L79.7373 31.9193C79.8039 32.0881 79.7706 32.2238 79.5676 32.2238H75.1566C74.9535 32.2238 74.8503 32.1576 74.7837 31.9888L73.0526 26.9606H65.2127V26.9573ZM71.7976 22.7401C71.1184 20.5124 69.7602 16.4276 69.1177 14.0343H69.0844C68.5418 16.2952 67.32 20.0092 66.4378 22.7401H71.8009H71.7976Z" fill="#EB1000"/>
<path d="M80.2766 23.9881C80.2766 19.1618 83.9086 15.1134 90.1206 15.1134C90.3936 15.1134 90.7331 15.1465 91.2392 15.1796V8.52946C91.2392 8.36064 91.3424 8.29443 91.4755 8.29443H95.7533C95.9231 8.29443 95.9564 8.36064 95.9564 8.49635V28.4403C95.9564 29.2149 95.9897 30.2278 96.0929 30.903C96.0929 31.0719 96.0596 31.1381 95.8565 31.2076C93.5162 32.1874 91.2758 32.5581 89.1718 32.5581C84.1483 32.5581 80.2799 29.7246 80.2799 23.9847L80.2766 23.9881ZM91.2392 19.1949C90.8996 19.0592 90.4602 19.0261 89.9841 19.0261C87.3708 19.0261 85.1304 20.6117 85.1304 23.7497C85.1304 27.0897 87.0645 28.5429 89.6445 28.5429C90.2205 28.5429 90.7631 28.5098 91.2392 28.341V19.1949Z" fill="#EB1000"/>
<path d="M115.395 23.7497C115.395 29.0493 111.932 32.5581 107.045 32.5581C101.243 32.5581 98.6628 28.2052 98.6628 23.8523C98.6628 19.0592 101.889 15.1101 107.115 15.1101C112.342 15.1101 115.398 19.1949 115.398 23.7497H115.395ZM103.447 23.7828C103.447 26.7521 104.838 28.6422 107.112 28.6422C109.079 28.6422 110.574 26.954 110.574 23.849C110.574 21.2174 109.489 19.0228 106.909 19.0228C104.941 19.0228 103.447 20.7772 103.447 23.7828Z" fill="#EB1000"/>
<path d="M122.529 8.29443C122.802 8.29443 122.869 8.32754 122.869 8.56587V15.4842C123.751 15.2491 124.703 15.1134 125.718 15.1134C130.708 15.1134 133.864 18.6222 133.864 23.144C133.864 29.4565 128.841 32.5581 123.681 32.5581C121.883 32.5581 120.082 32.3231 118.351 31.7836C118.248 31.7505 118.148 31.5816 118.148 31.4459V8.52946C118.148 8.36064 118.215 8.29443 118.384 8.29443H122.526H122.529ZM124.869 19.0923C123.784 19.0923 123.308 19.2611 122.865 19.3637V28.5098C123.271 28.6124 123.714 28.6455 124.12 28.6455C126.7 28.6455 129.041 27.093 129.041 23.5842C129.041 20.5124 127.243 19.0956 124.866 19.0956L124.869 19.0923Z" fill="#EB1000"/>
<path d="M140.499 25.0672C140.669 26.9904 142.027 28.576 145.353 28.576C146.881 28.576 148.239 28.3409 149.527 27.8014C149.63 27.7352 149.73 27.7683 149.73 27.9702V31.1778C149.73 31.4128 149.664 31.5154 149.494 31.5816C148.136 32.2238 146.644 32.5614 144.301 32.5614C137.919 32.5614 135.678 28.2085 135.678 24.0244C135.678 19.367 138.565 15.1134 143.891 15.1134C149.218 15.1134 151.052 19.0625 151.052 22.4024C151.052 23.4485 150.985 24.2926 150.882 24.6633C150.849 24.8321 150.779 24.8983 150.609 24.9347C150.166 25.0009 148.878 25.0705 147.114 25.0705H140.496L140.499 25.0672ZM144.91 21.7934C145.995 21.7934 146.471 21.7603 146.608 21.7272V21.4921C146.608 20.6811 145.962 18.8274 143.721 18.8274C141.481 18.8274 140.665 20.413 140.462 21.7967H144.91V21.7934Z" fill="#EB1000"/>
<path d="M28.0073 0.889526H44.4295V39.9862L28.0073 0.889526Z" fill="#EB1000"/>
<path d="M16.4355 0.889526H0V39.9862L16.4355 0.889526Z" fill="#EB1000"/>
<path d="M22.2213 15.2988L32.6845 39.9862H25.8266L22.6973 32.1245H15.0405L22.2213 15.2988Z" fill="#EB1000"/>
</svg>
